<svg id="Слой_1" data-name="Слой 1" xmlns="http://www.w3.org/2000/svg" viewBox="0 0 24 24"><defs><style>.cls-1{fill:none;}.cls-2{fill:#ed5a5a;}</style></defs><title>FB</title><path id="Path_63" data-name="Path 63" class="cls-1" d="M0,0H24V24H0Z"/><path id="Path_67" data-name="Path 67" class="cls-1" d="M0,0H24V24H0Z"/><path id="Path_65" data-name="Path 65" class="cls-1" d="M0,0H24V24H0Z"/><g id="post-facebook"><path id="Path_1" data-name="Path 1" class="cls-2" d="M20.26,1.41H3.74A2.1,2.1,0,0,0,1.67,3.53V20.47a2.1,2.1,0,0,0,2.07,2.12H20.26a2.1,2.1,0,0,0,2.07-2.12V3.53A2.1,2.1,0,0,0,20.26,1.41Zm-1,2.12V6.71H17.16a1,1,0,0,0-1,.94V9.88h3.1v3.18h-3.1v7.41H13V13.06H11V9.88H13V7.23a3.7,3.7,0,0,1,3.61-3.7Z"/></g></svg>