<svg id="Слой_1" data-name="Слой 1" xmlns="http://www.w3.org/2000/svg" viewBox="0 0 80 71.88"><defs><style>.cls-1{fill:#fff;}</style></defs><title>icon 3</title><path id="Path_69" data-name="Path 69" class="cls-1" d="M41.84,22.56a1.57,1.57,0,1,0,1.57,1.57h0A1.57,1.57,0,0,0,41.84,22.56Z" transform="translate(-1.84 -6.94)"/><path id="Path_70" data-name="Path 70" class="cls-1" d="M15.94,50.69a1.57,1.57,0,1,0-1.57-1.57A1.56,1.56,0,0,0,15.94,50.69Z" transform="translate(-1.84 -6.94)"/><path id="Path_71" data-name="Path 71" class="cls-1" d="M54.34,6.94c-14.07,0-25.61,9.7-26.51,21.91-13.39.67-26,10.33-26,23.4A21.85,21.85,0,0,0,7.93,67.19a9.52,9.52,0,0,1-2.51,9,1.55,1.55,0,0,0,0,2.2,1.53,1.53,0,0,0,1.1.46A17.19,17.19,0,0,0,18.46,74a35.89,35.89,0,0,0,10.88,1.7C43.4,75.69,55,66,55.84,53.78a35.22,35.22,0,0,0,9.37-1.67,17.26,17.26,0,0,0,11.94,4.83,1.56,1.56,0,0,0,1.56-1.57,1.53,1.53,0,0,0-.46-1.1,9.49,9.49,0,0,1-2.51-9,21.83,21.83,0,0,0,6.1-14.94C81.84,16.8,68.27,6.94,54.34,6.94Zm-25,65.62a31.44,31.44,0,0,1-10.7-1.84,1.56,1.56,0,0,0-1.73.4,14.14,14.14,0,0,1-7,4.16,12.63,12.63,0,0,0,.94-9.3,1.51,1.51,0,0,0-.38-.66A18.76,18.76,0,0,1,5,52.25c0-11,11.17-20.31,24.38-20.31,12.48,0,23.44,8.67,23.44,20.31C52.78,63.45,42.26,72.56,29.34,72.56ZM73.22,43.44a1.51,1.51,0,0,0-.38.66,12.58,12.58,0,0,0,1,9.3,14.06,14.06,0,0,1-7-4.16,1.57,1.57,0,0,0-1.74-.4,30.74,30.74,0,0,1-9.2,1.81A22.37,22.37,0,0,0,47.4,35.06H67.78a1.56,1.56,0,0,0,0-3.12H42.6A29.1,29.1,0,0,0,31,28.86c.9-10.5,11-18.8,23.37-18.8,13.21,0,24.37,9.3,24.37,20.31A18.75,18.75,0,0,1,73.22,43.44Z" transform="translate(-1.84 -6.94)"/><path id="Path_72" data-name="Path 72" class="cls-1" d="M41.87,47.56H22.14a1.57,1.57,0,1,0,0,3.13H41.87a1.57,1.57,0,1,0,0-3.13Z" transform="translate(-1.84 -6.94)"/><path id="Path_73" data-name="Path 73" class="cls-1" d="M41.89,56.93h-26a1.57,1.57,0,1,0,0,3.13h26a1.57,1.57,0,1,0,0-3.13Z" transform="translate(-1.84 -6.94)"/><path id="Path_74" data-name="Path 74" class="cls-1" d="M67.78,22.56H48.05a1.57,1.57,0,1,0,0,3.13H67.78a1.57,1.57,0,1,0,0-3.13Z" transform="translate(-1.84 -6.94)"/></svg>