<svg id="Слой_1" data-name="Слой 1" xmlns="http://www.w3.org/2000/svg" viewBox="0 0 80 80"><defs><style>.cls-1{fill:#fff;}</style></defs><title>icon 2</title><g id="training"><g id="Group_152" data-name="Group 152"><g id="Group_151" data-name="Group 151"><path id="Path_5" data-name="Path 5" class="cls-1" d="M46,74.15h-7a1.58,1.58,0,1,0,0,3.15h7a1.58,1.58,0,1,0,0-3.15Z" transform="translate(-2.5 -2.5)"/></g></g><g id="Group_154" data-name="Group 154"><g id="Group_153" data-name="Group 153"><path id="Path_6" data-name="Path 6" class="cls-1" d="M58.61,14.36a1.58,1.58,0,1,0,0,2.23,1.58,1.58,0,0,0,0-2.23Z" transform="translate(-2.5 -2.5)"/></g></g><g id="Group_156" data-name="Group 156"><g id="Group_155" data-name="Group 155"><path id="Path_7" data-name="Path 7" class="cls-1" d="M80.94,26.56A1.56,1.56,0,0,0,82.5,25V15.37A1.55,1.55,0,0,0,81.64,14h0L58.18,2.66a1.55,1.55,0,0,0-1.36,0L33.38,14a1.57,1.57,0,0,0,0,2.81l9.14,4.41v9.66a1.55,1.55,0,0,0,0,.22H42.1a5.21,5.21,0,1,0,0,10.41h.5A15,15,0,0,0,49,52.19H34.42a5.58,5.58,0,0,0-2.54.6V29.73a2.54,2.54,0,0,1,2.54-2.54h4a1.57,1.57,0,0,0,0-3.13h-4a5.67,5.67,0,0,0-4.11,1.77,5.65,5.65,0,0,0-4.11-1.77H4.06A1.56,1.56,0,0,0,2.5,25.63V59.85a1.56,1.56,0,0,0,1.56,1.56H5.94v7.65H4.06A1.56,1.56,0,0,0,2.5,70.63v2.81a9.08,9.08,0,0,0,9.06,9.06H73.44a9.08,9.08,0,0,0,9.06-9.06V70.63a1.56,1.56,0,0,0-1.56-1.57H79.06v-23a1.56,1.56,0,0,0-3.12,0v23H9.06V61.41h47.5a1.56,1.56,0,0,0,1.56-1.56v-5A15,15,0,0,0,72.4,41.48h.5a5.21,5.21,0,1,0,0-10.41h-.43a1.55,1.55,0,0,0,0-.22V21.19l6.9-3.33V25A1.56,1.56,0,0,0,80.94,26.56ZM42.52,38.36H42.1a2.08,2.08,0,1,1,0-4.16h.42ZM5.63,27.19H26.21a2.54,2.54,0,0,1,2.54,2.54V52.79a5.75,5.75,0,0,0-2.54-.6H5.63Zm73.75,45v1.25a6,6,0,0,1-5.94,5.94H11.56a5.94,5.94,0,0,1-5.93-5.94V72.19ZM5.63,58.29v-3H26.21a2.55,2.55,0,0,1,2.54,2.55,1.59,1.59,0,0,0,.06.43ZM72.48,34.2h.42a2.08,2.08,0,0,1,0,4.16h-.42ZM55,58.29H31.82a3.18,3.18,0,0,0,.06-.43,2.55,2.55,0,0,1,2.54-2.55H55ZM69.36,39.88a11.86,11.86,0,0,1-23.72,0V33.25l11.23,4.94a1.62,1.62,0,0,0,1.26,0l11.23-4.94Zm0-10.05L57.5,35.05,45.64,29.83V22.7l11.18,5.4a1.62,1.62,0,0,0,1.36,0l11.18-5.4v7.14Zm-7.47-12.9H74.11L57.5,25,37.66,15.37,57.5,5.8l16.6,8H61.9a1.57,1.57,0,1,0,0,3.13Z" transform="translate(-2.5 -2.5)"/></g></g><g id="Group_158" data-name="Group 158"><g id="Group_157" data-name="Group 157"><path id="Path_8" data-name="Path 8" class="cls-1" d="M82,30.86A1.57,1.57,0,1,0,82.5,32,1.57,1.57,0,0,0,82,30.86Z" transform="translate(-2.5 -2.5)"/></g></g><g id="Group_160" data-name="Group 160"><g id="Group_159" data-name="Group 159"><path id="Path_9" data-name="Path 9" class="cls-1" d="M23.44,42.32a1.58,1.58,0,1,0,0,2.23,1.58,1.58,0,0,0,0-2.23Z" transform="translate(-2.5 -2.5)"/></g></g><g id="Group_162" data-name="Group 162"><g id="Group_161" data-name="Group 161"><path id="Path_10" data-name="Path 10" class="cls-1" d="M16.52,41.87h-5a1.56,1.56,0,0,0-1.57,1.57A1.58,1.58,0,0,0,11.48,45h5a1.58,1.58,0,0,0,0-3.15Z" transform="translate(-2.5 -2.5)"/></g></g><g id="Group_164" data-name="Group 164"><g id="Group_163" data-name="Group 163"><path id="Path_11" data-name="Path 11" class="cls-1" d="M22.47,34.37h-11a1.56,1.56,0,0,0-1.57,1.57,1.58,1.58,0,0,0,1.57,1.58h11a1.58,1.58,0,0,0,1.58-1.58,1.57,1.57,0,0,0-1.57-1.57Z" transform="translate(-2.5 -2.5)"/></g></g></g></svg>