<svg id="Слой_1" data-name="Слой 1" xmlns="http://www.w3.org/2000/svg" viewBox="0 0 80 80.06"><defs><style>.cls-1{fill:#fff;}</style></defs><title>icon 5</title><g id="speech-bubble"><g id="social-care"><g id="Group_395" data-name="Group 395"><g id="Group_394" data-name="Group 394"><path id="Path_199" data-name="Path 199" class="cls-1" d="M19.34,79.29,17,76a1.56,1.56,0,0,0-2.62,1.68l.08.12,2.35,3.3a1.56,1.56,0,0,0,2.54-1.8Z" transform="translate(-2.22 -1.75)"/></g></g><g id="Group_397" data-name="Group 397"><g id="Group_396" data-name="Group 396"><path id="Path_200" data-name="Path 200" class="cls-1" d="M37.32,79.87,34.77,67.7a23,23,0,0,0-9.71-14.41l-5.45-3.67a5.5,5.5,0,0,0-7,.71V31.55a5.22,5.22,0,1,0-10.43,0V55.72A15.07,15.07,0,0,0,5,64.51L7.8,68.42a1.56,1.56,0,1,0,2.62-1.68l-.08-.12L7.56,62.71a12.06,12.06,0,0,1-2.23-7V31.55a2.1,2.1,0,1,1,4.2,0V50.73A10.92,10.92,0,0,0,12.34,58l.24.27L16,61.92l1.6,1.71h0L20,66.21a1.56,1.56,0,0,0,2.32-2.08l0-.06-3.94-4.19-3.57-3.8,0,0a2.63,2.63,0,0,1,0-3.44,2.35,2.35,0,0,1,3.07-.39l5.46,3.66a19.88,19.88,0,0,1,8.4,12.46l2.55,12.18a1.56,1.56,0,0,0,3.06-.58.13.13,0,0,0,0-.06Z" transform="translate(-2.22 -1.75)"/></g></g><g id="Group_399" data-name="Group 399"><g id="Group_398" data-name="Group 398"><path id="Path_201" data-name="Path 201" class="cls-1" d="M13.77,71.44h0a1.56,1.56,0,0,0-2.54,1.81h0a1.56,1.56,0,0,0,2.54-1.81Z" transform="translate(-2.22 -1.75)"/></g></g><g id="Group_401" data-name="Group 401"><g id="Group_400" data-name="Group 400"><path id="Path_202" data-name="Path 202" class="cls-1" d="M80.27,27.48a5.22,5.22,0,0,0-8.49,4.07V50.33a5.49,5.49,0,0,0-7-.71l-5.45,3.67A22.93,22.93,0,0,0,49.67,67.7L47.11,79.88a1.56,1.56,0,1,0,3,.7.13.13,0,0,0,0-.06l2.56-12.18a19.84,19.84,0,0,1,8.4-12.46l5.45-3.67a2.36,2.36,0,0,1,3.07.4,2.63,2.63,0,0,1,0,3.44l0,0-7.51,8a1.57,1.57,0,0,0,0,2.21,1.55,1.55,0,0,0,2.2,0l.06-.05,7.42-7.89a2.09,2.09,0,0,0,.24-.28,10.85,10.85,0,0,0,2.81-7.31V31.55a2.1,2.1,0,1,1,4.2,0V55.72a12,12,0,0,1-2.22,7L65.1,79.29a1.56,1.56,0,0,0,2.46,1.92.83.83,0,0,0,.08-.12L79.42,64.5a15.11,15.11,0,0,0,2.8-8.79V31.55A5.23,5.23,0,0,0,80.27,27.48Z" transform="translate(-2.22 -1.75)"/></g></g><g id="Group_403" data-name="Group 403"><g id="Group_402" data-name="Group 402"><path id="Path_203" data-name="Path 203" class="cls-1" d="M62,31.63,59.19,31v-.5a7,7,0,0,0,3-5.72v-3.6a7,7,0,0,0-11.5-5.3,9.1,9.1,0,0,0-16.87,0,7,7,0,0,0-11.52,5.29v3.6a7,7,0,0,0,3,5.72V31l-2.77.66a7.3,7.3,0,0,0-5.62,7.13v2.91a1.56,1.56,0,0,0,1.56,1.56h7.16c0,.18,0,.37,0,.57v5.6A1.56,1.56,0,0,0,27.13,51H36.5a1.56,1.56,0,1,0,0-3.12H34.89V44.62a1.56,1.56,0,0,0-3.12,0h0v3.22H28.69V43.79a6.46,6.46,0,0,1,5-6.3l4.28-1L40.79,43a1.55,1.55,0,0,0,1.43.93h0A1.55,1.55,0,0,0,43.65,43l2.86-6.5,4.26,1a6.45,6.45,0,0,1,5,6.3v4H52.66V44.62a1.56,1.56,0,0,0-3.12,0v3.22H47.78a1.56,1.56,0,0,0,0,3.12h9.53a1.56,1.56,0,0,0,1.56-1.56h0V43.8c0-.19,0-.39,0-.58H66a1.55,1.55,0,0,0,1.56-1.55h0V38.75A7.3,7.3,0,0,0,62,31.63ZM55.2,17.29a3.86,3.86,0,0,1,3.85,3.6H56.88a11.35,11.35,0,0,1-5.23-1.28,3.88,3.88,0,0,1,3.55-2.32Zm-3.86,7.23V22.91A14.64,14.64,0,0,0,56.88,24h2.18v.74a3.86,3.86,0,0,1-7.72,0ZM36.25,19.27h0a6,6,0,0,1,11.9-.95l-2.62-1.54a1.56,1.56,0,0,0-2,.34,6.73,6.73,0,0,1-5.16,2.41H36.25Zm-7-2a3.86,3.86,0,0,1,3.54,2.33,11.28,11.28,0,0,1-5.22,1.28H25.41a3.86,3.86,0,0,1,3.85-3.6ZM25.4,24h2.18a14.41,14.41,0,0,0,5.54-1.1v1.85a3.86,3.86,0,0,1-7.72,0Zm7.53,10.46a9.54,9.54,0,0,0-6.62,5.64H20V38.75a4.19,4.19,0,0,1,3.23-4.09l4-.95a1.55,1.55,0,0,0,1.2-1.51v-.53a7.23,7.23,0,0,0,1.74,0v.51a1.56,1.56,0,0,0,1.27,1.54l2.32.56Zm4.35-2.42A6.8,6.8,0,0,0,36,31.63L33.25,31v-.49a7.51,7.51,0,0,0,1.35-1.23,9.13,9.13,0,0,0,2.68,2.68Zm6.77,2.29-1.83,4.15L40.4,34.33V33.21a9.15,9.15,0,0,0,3.65,0Zm-1.81-4.05a6,6,0,0,1-6-6V22.65h2.13A9.82,9.82,0,0,0,45,20.09L48.22,22v2.54a6,6,0,0,1-6,5.76Zm4.93,1.76V32a9.39,9.39,0,0,0,2.7-2.7,6.46,6.46,0,0,0,1.34,1.22V31l-2.79.67a6.8,6.8,0,0,0-1.25.42Zm17.3,8.06H58.13a9.58,9.58,0,0,0-6.63-5.64l-.79-.18,2.34-.56a1.57,1.57,0,0,0,1.28-1.54v-.52a7.23,7.23,0,0,0,1.74,0v.52a1.56,1.56,0,0,0,1.2,1.52l4,.95a4.2,4.2,0,0,1,3.23,4.09Z" transform="translate(-2.22 -1.75)"/></g></g><g id="Group_405" data-name="Group 405"><g id="Group_404" data-name="Group 404"><path id="Path_204" data-name="Path 204" class="cls-1" d="M43.32,48.41a1.56,1.56,0,0,0-2.2,2.21,1.57,1.57,0,0,0,2.2,0,1.61,1.61,0,0,0,.46-1.11A1.57,1.57,0,0,0,43.32,48.41Z" transform="translate(-2.22 -1.75)"/></g></g><g id="Group_407" data-name="Group 407"><g id="Group_406" data-name="Group 406"><path id="Path_205" data-name="Path 205" class="cls-1" d="M42.22,1.75a1.56,1.56,0,0,0-1.56,1.56h0V5.64a1.56,1.56,0,0,0,3.12,0h0V3.31A1.56,1.56,0,0,0,42.22,1.75Z" transform="translate(-2.22 -1.75)"/></g></g><g id="Group_409" data-name="Group 409"><g id="Group_408" data-name="Group 408"><path id="Path_206" data-name="Path 206" class="cls-1" d="M36.46,6.83,34.83,5.2a1.56,1.56,0,1,0-2.3,2.11l.1.1L34.26,9a1.56,1.56,0,1,0,2.3-2.11Z" transform="translate(-2.22 -1.75)"/></g></g><g id="Group_411" data-name="Group 411"><g id="Group_410" data-name="Group 410"><path id="Path_207" data-name="Path 207" class="cls-1" d="M51.78,5.24a1.57,1.57,0,0,0-2.2,0L48,6.87a1.56,1.56,0,0,0,2.12,2.29l.09-.09,1.62-1.62A1.56,1.56,0,0,0,51.78,5.24Z" transform="translate(-2.22 -1.75)"/></g></g></g></g></svg>