<svg id="Слой_1" data-name="Слой 1" xmlns="http://www.w3.org/2000/svg" viewBox="0 0 80 79.34"><defs><style>.cls-1{fill:#fff;}</style></defs><title>icon 6</title><g id="abc-squares"><path id="Path_208" data-name="Path 208" class="cls-1" d="M55.09,41.44a6.6,6.6,0,0,0,6.6-6.6V9.76a6.59,6.59,0,0,0-6.6-6.6H30a6.6,6.6,0,0,0-6.6,6.6V34.84a6.61,6.61,0,0,0,6.6,6.6Zm-27.72-6.6V9.76A2.64,2.64,0,0,1,30,7.12H55.09a2.64,2.64,0,0,1,2.64,2.64V34.84a2.65,2.65,0,0,1-2.64,2.64H30a2.66,2.66,0,0,1-2.64-2.64Z" transform="translate(-2.22 -3.16)"/><path id="Path_209" data-name="Path 209" class="cls-1" d="M2.22,50.82V75.9a6.61,6.61,0,0,0,6.6,6.6H33.9a6.6,6.6,0,0,0,6.6-6.6h0V50.82a6.59,6.59,0,0,0-6.6-6.6H8.82a6.6,6.6,0,0,0-6.6,6.6Zm34.32,0V75.9a2.64,2.64,0,0,1-2.64,2.64H8.82A2.64,2.64,0,0,1,6.18,75.9V50.82a2.64,2.64,0,0,1,2.64-2.64H33.9A2.64,2.64,0,0,1,36.54,50.82Z" transform="translate(-2.22 -3.16)"/><path id="Path_210" data-name="Path 210" class="cls-1" d="M82.22,50.82a6.59,6.59,0,0,0-6.6-6.6H50.54a6.6,6.6,0,0,0-6.6,6.6h0V75.9a6.61,6.61,0,0,0,6.6,6.6H75.62a6.6,6.6,0,0,0,6.6-6.6h0Zm-4,25.08a2.64,2.64,0,0,1-2.64,2.64H50.54A2.65,2.65,0,0,1,47.9,75.9V50.82a2.65,2.65,0,0,1,2.64-2.64H75.62a2.64,2.64,0,0,1,2.64,2.64Z" transform="translate(-2.22 -3.16)"/><path id="Path_211" data-name="Path 211" class="cls-1" d="M31.84,34a2,2,0,0,0,2.66-.89h0l1.8-3.61H48.81l1.8,3.61a2,2,0,1,0,3.57-1.71l0-.05L44.33,11.54s0,0,0,0l-.12-.18a1.3,1.3,0,0,0-.1-.15L44,11l-.14-.14-.14-.1-.19-.12,0,0-.11-.05-.2-.07-.18,0-.2,0h-.38l-.19,0-.18,0-.21.08-.11,0,0,0a1.37,1.37,0,0,0-.2.13l-.13.08-.15.15-.13.13a.86.86,0,0,0-.1.16,1,1,0,0,0-.11.17l0,0L31,31.29A2,2,0,0,0,31.84,34ZM42.55,16.86l4.29,8.63H38.26Z" transform="translate(-2.22 -3.16)"/><path id="Path_212" data-name="Path 212" class="cls-1" d="M16.63,75.72h5a7.74,7.74,0,0,0,3.62-14.58A6.35,6.35,0,0,0,20.15,51H16.63a3.28,3.28,0,0,0-3.13,2.3,2,2,0,0,0-.17.8V72.53a1.82,1.82,0,0,0,.06.46A3.3,3.3,0,0,0,16.63,75.72ZM25.43,68a3.78,3.78,0,0,1-3.78,3.78H17.29V64.19h4.36A3.79,3.79,0,0,1,25.43,68Zm-2.86-10.6a2.41,2.41,0,0,1-2.42,2.41H17.29V55h2.86a2.43,2.43,0,0,1,2.42,2.42Z" transform="translate(-2.22 -3.16)"/><path id="Path_213" data-name="Path 213" class="cls-1" d="M70,69.07a7.85,7.85,0,1,1-.18-11.58,2,2,0,0,0,2.7-2.91l-.07-.06A11.81,11.81,0,1,0,72.72,72,2,2,0,1,0,70,69.07Z" transform="translate(-2.22 -3.16)"/></g></svg>