<svg id="Слой_1" data-name="Слой 1" xmlns="http://www.w3.org/2000/svg" viewBox="0 0 80.08 80"><defs><style>.cls-1{fill:#fff;}</style></defs><title>icon 4</title><path id="Path_75" data-name="Path 75" class="cls-1" d="M77.45,5.12h3.13a1.56,1.56,0,0,0,0-3.12H49.17a1.56,1.56,0,0,0,0,3.12H74.33V48.25H71.2V45.12A6.26,6.26,0,0,0,65,38.87H53.08a6.26,6.26,0,0,0-6.25,6.25v3.13H10V5.12H35.11a1.56,1.56,0,0,0,0-3.12H3.7a1.56,1.56,0,0,0,0,3.12H6.83V54.5H3.7a1.56,1.56,0,0,0-.08,3.12.11.11,0,0,0,.08,0H16.2V78.88H13.08a1.56,1.56,0,0,0,0,3.12h9.37a1.56,1.56,0,0,0,0-3.12H19.33v-15H65v15H61.83a1.56,1.56,0,0,0,0,3.12H71.2a1.56,1.56,0,0,0,0-3.12H68.08V57.62h12.5a1.56,1.56,0,0,0,.08-3.12H77.45ZM50,45.12A3.13,3.13,0,0,1,53.08,42H65a3.13,3.13,0,0,1,3.13,3.12v3.13H50ZM65,60.75H19.33V57.62H65ZM10,54.5V51.38H74.33V54.5Z" transform="translate(-2.1 -2)"/><path id="Path_76" data-name="Path 76" class="cls-1" d="M66.48,11.87H17.8a1.57,1.57,0,1,0,0,3.13H66.48a1.57,1.57,0,1,0,0-3.13Z" transform="translate(-2.1 -2)"/><path id="Path_77" data-name="Path 77" class="cls-1" d="M68,22.78a1.56,1.56,0,0,0-1.56-1.56H17.8a1.57,1.57,0,1,0,0,3.13H66.48A1.56,1.56,0,0,0,68,22.79Z" transform="translate(-2.1 -2)"/><path id="Path_78" data-name="Path 78" class="cls-1" d="M17.75,30.59a1.57,1.57,0,1,0,0,3.13H42.18a1.57,1.57,0,1,0,0-3.13Z" transform="translate(-2.1 -2)"/><circle id="Ellipse_221" data-name="Ellipse 221" class="cls-1" cx="40.44" cy="1.5" r="1.5"/></svg>