<svg id="Слой_1" data-name="Слой 1" xmlns="http://www.w3.org/2000/svg" viewBox="0 0 79.96 80.04"><defs><style>.cls-1{fill:#fff;}</style></defs><title>icon 1</title><g id="Page-1"><g id="_010---Idea" data-name=" 010---Idea"><path id="Shape" class="cls-1" d="M3.94,52.37a9.52,9.52,0,0,0,1.38.8c.58.3,1.54.79,1.61,1.13a2.35,2.35,0,0,1-.15,1.36c-.2.42-.41.79-.59,1.1-.49.87-1.3,2.31-.07,3.32.29.27.78.65,1.24,1A3.31,3.31,0,0,0,6.92,63a1.91,1.91,0,0,0,.79,1.31,10.09,10.09,0,0,0,.93.57c.78.45,1.1.66,1.2,1.08a3.62,3.62,0,0,1-.14,1.6c-.08.35-.15.71-.2,1.07a8,8,0,0,0,.44,3.59,4.89,4.89,0,0,0,5.8,3.51A100.08,100.08,0,0,0,27,72.37c3,1.76,4.9,7.12,5.39,9.13a1.33,1.33,0,0,0,1.29,1l33.45-.1a1.33,1.33,0,0,0,1.33-1.33,1.39,1.39,0,0,0-.06-.4A10.43,10.43,0,0,0,67,78.16a11.77,11.77,0,0,1-.86-1.45,23.71,23.71,0,0,1-1.5-3.79,45.11,45.11,0,0,1-1.57-7.8,1.33,1.33,0,0,0-2.65.3v0a47.5,47.5,0,0,0,1.65,8.27,27.23,27.23,0,0,0,1.66,4.17,14.47,14.47,0,0,0,1,1.74l.09.14-30.22.08A21.15,21.15,0,0,0,30,71.34l1.2-.42c.89-.32,1.56-.55,1.91-.66,5.71-1.81,8.56-4.41,8.48-7.73a1.31,1.31,0,0,0-1.3-1.31h-.05a1.32,1.32,0,0,0-1.3,1.36C39,64,37.83,66,32.29,67.72c-.36.11-1.06.36-2,.68l-3.64,1.26h0A103.55,103.55,0,0,1,15.2,73.12a2.36,2.36,0,0,1-2.74-1.78A5.35,5.35,0,0,1,12.15,69a7.6,7.6,0,0,1,.16-.83,5.82,5.82,0,0,0,.11-2.84A4.38,4.38,0,0,0,10,62.56l-.28-.15a4.75,4.75,0,0,1,.51-.83A1.33,1.33,0,0,0,10,59.71l0,0c-.32-.23-1.08-.8-1.63-1.24.06-.12.13-.25.2-.36.21-.37.45-.8.68-1.29a5,5,0,0,0,.36-3c-.32-1.63-1.88-2.43-3-3a8,8,0,0,1-1.1-.63,6.23,6.23,0,0,1-.8-.66c0-.2.22-.68,1.24-1.92A54.28,54.28,0,0,0,12,37.67a3.9,3.9,0,0,0,.51-1.8,4.67,4.67,0,0,0-2-3.33c-.54-.49-1-1-1.1-1.39a2.42,2.42,0,0,1,.21-.92c.21-.57.46-1.13.72-1.69A19.8,19.8,0,0,0,11.66,25l.13-.56a31.51,31.51,0,0,1,1.1-3.94,22.85,22.85,0,0,1,4.78-7.82C20.22,10,24.23,8.1,29.61,7a85.17,85.17,0,0,1,12.5-1.8,28,28,0,0,1,6.27.35A1.33,1.33,0,1,0,48.84,3,31.55,31.55,0,0,0,42,2.56,88.74,88.74,0,0,0,29.09,4.41c-6,1.2-10.38,3.31-13.36,6.46a25.57,25.57,0,0,0-5.34,8.72,35.4,35.4,0,0,0-1.18,4.26l-.13.57a18.13,18.13,0,0,1-1.14,3c-.27.61-.55,1.22-.78,1.85a4.49,4.49,0,0,0-.36,2.23,5.11,5.11,0,0,0,2,3c.65.6,1.08,1,1.08,1.38a2,2,0,0,1-.23.58A51,51,0,0,1,3.77,46c-1,1.18-2,2.55-1.76,3.92A4.09,4.09,0,0,0,3.94,52.37Z" transform="translate(-1.98 -2.48)"/><path id="Shape-2" class="cls-1" d="M16.87,26.32l.13-.6a31.33,31.33,0,0,1,.89-3.29,17.84,17.84,0,0,1,3.67-6A14,14,0,0,1,27.73,13a1.34,1.34,0,0,0-.7-2.59l-.08,0a16.45,16.45,0,0,0-7.33,4.11,20.35,20.35,0,0,0-4.23,6.93,32.87,32.87,0,0,0-1,3.62l-.14.58a1.35,1.35,0,0,0,1,1.61,1.53,1.53,0,0,0,.3,0A1.35,1.35,0,0,0,16.87,26.32Z" transform="translate(-1.98 -2.48)"/><circle id="Oval" class="cls-1" cx="12.01" cy="28.14" r="1.34"/><path id="Shape-3" class="cls-1" d="M37.83,29.55A18.34,18.34,0,0,0,42.35,42a23,23,0,0,0,3.08,2.67c2,1.52,3.81,3,4.3,5a4,4,0,0,0-2.53,3.72V56a4,4,0,0,0,2.67,3.77V60a5.35,5.35,0,1,0,10.7,0h0v-.25A4,4,0,0,0,63.25,56V53.35a4,4,0,0,0-2.54-3.73c.49-2,2.34-3.45,4.3-5A23,23,0,0,0,68.09,42a18.34,18.34,0,0,0,4.52-12.43A17.73,17.73,0,0,0,55.22,11.88,17.75,17.75,0,0,0,37.83,29.55ZM51.21,32H49.87a1.34,1.34,0,1,1,1.34-1.34Zm5.35,17.39H53.89V34.62h2.67ZM55.22,62.71A2.67,2.67,0,0,1,52.55,60H57.9A2.67,2.67,0,0,1,55.22,62.71ZM60.57,56a1.34,1.34,0,0,1-1.34,1.34h-8A1.34,1.34,0,0,1,49.87,56h0V53.35A1.34,1.34,0,0,1,51.21,52h8a1.34,1.34,0,0,1,1.34,1.34h0Zm9.36-26.43a15.61,15.61,0,0,1-3.82,10.59,20.38,20.38,0,0,1-2.73,2.35,18.8,18.8,0,0,0-4.15,4V34.62h1.34a4,4,0,1,0-4-4V32H53.89V30.61a4,4,0,1,0-4,4h1.34V46.49a18.71,18.71,0,0,0-4.14-4,21.91,21.91,0,0,1-2.73-2.36,15.64,15.64,0,0,1-3.83-10.59c.13-8.15,6.86-15,14.71-15S69.81,21.44,69.93,29.59ZM59.23,32V30.61A1.34,1.34,0,1,1,60.57,32Z" transform="translate(-1.98 -2.48)"/><path id="Shape-4" class="cls-1" d="M76.63,30.52h4a1.34,1.34,0,0,0,0-2.67h-4a1.34,1.34,0,1,0-.08,2.67Z" transform="translate(-1.98 -2.48)"/><path id="Shape-5" class="cls-1" d="M70.36,15.48a1.3,1.3,0,0,0,.94-.4l2.84-2.83a1.34,1.34,0,0,0,.07-1.89,1.32,1.32,0,0,0-1.89-.07.23.23,0,0,0-.07.07l-2.84,2.83a1.34,1.34,0,0,0,1,2.29Z" transform="translate(-1.98 -2.48)"/><path id="Shape-6" class="cls-1" d="M55.31,9.21a1.34,1.34,0,0,0,1.34-1.34v-4A1.34,1.34,0,0,0,54,3.78V7.87a1.34,1.34,0,0,0,1.34,1.34Z" transform="translate(-1.98 -2.48)"/><path id="Shape-7" class="cls-1" d="M41.18,15.08a1.34,1.34,0,0,0,0-1.89h0l-2.84-2.84a1.34,1.34,0,0,0-2,1.83l.07.07,2.84,2.83a1.33,1.33,0,0,0,1.89,0Z" transform="translate(-1.98 -2.48)"/><path id="Shape-8" class="cls-1" d="M30,27.85a1.34,1.34,0,0,0-.07,2.67H34a1.34,1.34,0,0,0,.07-2.67H30Z" transform="translate(-1.98 -2.48)"/></g></g></svg>