<svg id="Слой_1" data-name="Слой 1" xmlns="http://www.w3.org/2000/svg" viewBox="0 0 24 24"><defs><style>.cls-1{fill:none;}.cls-2{fill:#ed5a5a;}</style></defs><title>inst</title><path id="Path_63" data-name="Path 63" class="cls-1" d="M0,0H24V24H0Z"/><path id="Path_67" data-name="Path 67" class="cls-1" d="M0,0H24V24H0Z"/><path id="Path_65" data-name="Path 65" class="cls-1" d="M0,0H24V24H0Z"/><path class="cls-2" d="M4.33,1.63H19.67a2.66,2.66,0,0,1,2.66,2.65V19.63a2.66,2.66,0,0,1-2.66,2.65H4.33a2.66,2.66,0,0,1-2.66-2.65V4.28A2.66,2.66,0,0,1,4.33,1.63Zm12.4,2.29a.94.94,0,0,0-.93.94V7.08a.93.93,0,0,0,.93.93h2.33A.93.93,0,0,0,20,7.08V4.86a.94.94,0,0,0-.93-.94H16.73ZM20,10.36H18.17a6,6,0,0,1,.27,1.78A6.33,6.33,0,0,1,12,18.36a6.22,6.22,0,0,1-6.16-8H4v8.73a.83.83,0,0,0,.82.82H19.17a.82.82,0,0,0,.82-.82ZM12,7.89a4.1,4.1,0,0,0-4.15,4h0a4.1,4.1,0,0,0,4.15,4,4.08,4.08,0,0,0,4.15-4h0a4.09,4.09,0,0,0-4.14-4Z"/></svg>