<svg id="Слой_1" data-name="Слой 1" xmlns="http://www.w3.org/2000/svg" viewBox="0 0 90.16 37.25"><defs><style>.cls-1{fill:none;}.cls-2{fill:#b5b5b5;}</style></defs><title>Logo WR</title><path id="Path_63" data-name="Path 63" class="cls-1" d="M38.15,13.25h24v24h-24Z"/><path id="Path_67" data-name="Path 67" class="cls-1" d="M38.15,13.25h24v24h-24Z"/><path id="Path_65" data-name="Path 65" class="cls-1" d="M38.15,13.25h24v24h-24Z"/><g id="Group_10" data-name="Group 10"><path id="Path_20" data-name="Path 20" class="cls-2" d="M51.72,3.92,49,14.83H44.28l-1.79-8.1h-.34l-1.78,8.1H35.63L32.91,3.92H35.8l2,8.1h.35l1.81-8.1h4.79L46.52,12h.34l2-8.1Z"/><path id="Path_21" data-name="Path 21" class="cls-2" d="M63.73,14.83H61V6.46H56.53v8.37H53.78V0h2.76V3.92h7.2V14.83Z"/><path id="Path_22" data-name="Path 22" class="cls-2" d="M68.8,0V2.12H66.05V0Zm0,3.92V14.83H66.05V3.92Z"/><path id="Path_23" data-name="Path 23" class="cls-2" d="M75.52,6.46v5.83h2.9v2.54H72.76V6.46h-1.7V3.92h1.7V0h2.76V3.92h2.9V6.46Z"/><path id="Path_24" data-name="Path 24" class="cls-2" d="M90.16,10.38H83.42c.19,1.34.85,2.12,3,2.12a12,12,0,0,0,3-.34v2.5a11.92,11.92,0,0,1-3.26.38c-4.9,0-5.6-3.45-5.6-5.65,0-3.25,1.31-5.68,4.83-5.68S90.15,6,90.15,9.16v1.22Zm-6.8-2h4c-.08-1.48-.68-2.12-2-2.12S83.45,7,83.36,8.37Z"/><g id="Group_9" data-name="Group 9"><g id="Group_8" data-name="Group 8"><path id="Path_25" data-name="Path 25" class="cls-2" d="M40.65,23H36.58v8.37H33.83V20.46h6.82Z"/><path id="Path_26" data-name="Path 26" class="cls-2" d="M52.2,28.72v2.65H48.07V30.31a3.2,3.2,0,0,1-3,1.27,3.59,3.59,0,0,1-3.79-3.39,2.94,2.94,0,0,1,0-.42A3.6,3.6,0,0,1,44.7,24a2.94,2.94,0,0,1,.42,0,3.15,3.15,0,0,1,3,1.27V22.9H42.56V20.46h8.26v8.26Zm-4.13-.95c0-.85-.55-1.53-2-1.53s-2,.68-2,1.53.55,1.53,2,1.53S48.07,28.62,48.07,27.77Z"/><path id="Path_27" data-name="Path 27" class="cls-2" d="M64.34,25.91c0,3.11-1.42,5.67-4.71,5.67A3.44,3.44,0,0,1,56.54,30v1.33H53.79V16.54h2.75v5.24a3.5,3.5,0,0,1,3.09-1.53C62.92,20.25,64.34,22.79,64.34,25.91Zm-2.76,0c0-2.17-.76-3.12-2.52-3.12s-2.52.95-2.52,3.12S57.3,29,59.06,29,61.58,28.09,61.58,25.91Z"/><path id="Path_28" data-name="Path 28" class="cls-2" d="M76.61,25.91c0,3.11-1.42,5.67-4.7,5.67A3.46,3.46,0,0,1,68.81,30v1.33H66.06V16.54h2.75v5.24a3.5,3.5,0,0,1,3.1-1.53C75.19,20.25,76.61,22.79,76.61,25.91Zm-2.75,0c0-2.17-.76-3.12-2.53-3.12s-2.52.95-2.52,3.12S69.57,29,71.33,29s2.53-.95,2.53-3.13Z"/><path id="Path_29" data-name="Path 29" class="cls-2" d="M81.18,16.54v2.12H78.43V16.54Zm0,3.92V31.37H78.43V20.46Z"/><path id="Path_30" data-name="Path 30" class="cls-2" d="M87.14,23v5.83H90v2.54H84.38V23h-1.7V20.46h1.7V16.54h2.76v3.92H90V23Z"/></g></g></g><g id="Group_12" data-name="Group 12"><path id="Path_31" data-name="Path 31" class="cls-2" d="M29.58,9.16a5.45,5.45,0,0,0-5.44-5.45h-8V19.83H29.57l-4.44-5.32A5.46,5.46,0,0,0,29.58,9.16Z"/><g id="Group_11" data-name="Group 11"><path id="Path_32" data-name="Path 32" class="cls-2" d="M16.11,20.74h-1V11.89H0l8.85,17.7,2.89-5.76,3.54,7.1,5.09-10.19Z"/></g></g></svg>