<svg id="Слой_1" data-name="Слой 1" xmlns="http://www.w3.org/2000/svg" viewBox="0 0 284 284"><defs><style>.cls-1{opacity:0.3;}.cls-2{fill:#fff;}</style></defs><title>Tocki</title><g id="Group_187" data-name="Group 187" class="cls-1"><circle id="Ellipse_11" data-name="Ellipse 11" class="cls-2" cx="3.5" cy="3.5" r="3.5"/><ellipse id="Ellipse_12" data-name="Ellipse 12" class="cls-2" cx="29" cy="3.5" rx="4" ry="3.5"/><ellipse id="Ellipse_13" data-name="Ellipse 13" class="cls-2" cx="54" cy="3.5" rx="4" ry="3.5"/><ellipse id="Ellipse_14" data-name="Ellipse 14" class="cls-2" cx="79" cy="3.5" rx="4" ry="3.5"/><circle id="Ellipse_15" data-name="Ellipse 15" class="cls-2" cx="104.5" cy="3.5" r="3.5"/><circle id="Ellipse_16" data-name="Ellipse 16" class="cls-2" cx="129.5" cy="3.5" r="3.5"/><circle id="Ellipse_17" data-name="Ellipse 17" class="cls-2" cx="154.5" cy="3.5" r="3.5"/><ellipse id="Ellipse_18" data-name="Ellipse 18" class="cls-2" cx="180" cy="3.5" rx="4" ry="3.5"/><ellipse id="Ellipse_19" data-name="Ellipse 19" class="cls-2" cx="205" cy="3.5" rx="4" ry="3.5"/><ellipse id="Ellipse_20" data-name="Ellipse 20" class="cls-2" cx="230" cy="3.5" rx="4" ry="3.5"/><circle id="Ellipse_21" data-name="Ellipse 21" class="cls-2" cx="255.5" cy="3.5" r="3.5"/><circle id="Ellipse_22" data-name="Ellipse 22" class="cls-2" cx="280.5" cy="3.5" r="3.5"/><circle id="Ellipse_23" data-name="Ellipse 23" class="cls-2" cx="3.5" cy="28.5" r="3.5"/><ellipse id="Ellipse_24" data-name="Ellipse 24" class="cls-2" cx="29" cy="28.5" rx="4" ry="3.5"/><ellipse id="Ellipse_25" data-name="Ellipse 25" class="cls-2" cx="54" cy="28.5" rx="4" ry="3.5"/><ellipse id="Ellipse_26" data-name="Ellipse 26" class="cls-2" cx="79" cy="28.5" rx="4" ry="3.5"/><circle id="Ellipse_27" data-name="Ellipse 27" class="cls-2" cx="104.5" cy="28.5" r="3.5"/><circle id="Ellipse_28" data-name="Ellipse 28" class="cls-2" cx="129.5" cy="28.5" r="3.5"/><circle id="Ellipse_29" data-name="Ellipse 29" class="cls-2" cx="154.5" cy="28.5" r="3.5"/><ellipse id="Ellipse_30" data-name="Ellipse 30" class="cls-2" cx="180" cy="28.5" rx="4" ry="3.5"/><ellipse id="Ellipse_31" data-name="Ellipse 31" class="cls-2" cx="205" cy="28.5" rx="4" ry="3.5"/><ellipse id="Ellipse_32" data-name="Ellipse 32" class="cls-2" cx="230" cy="28.5" rx="4" ry="3.5"/><circle id="Ellipse_33" data-name="Ellipse 33" class="cls-2" cx="255.5" cy="28.5" r="3.5"/><circle id="Ellipse_34" data-name="Ellipse 34" class="cls-2" cx="280.5" cy="28.5" r="3.5"/><ellipse id="Ellipse_35" data-name="Ellipse 35" class="cls-2" cx="3.5" cy="54" rx="3.5" ry="4"/><circle id="Ellipse_36" data-name="Ellipse 36" class="cls-2" cx="29" cy="54" r="4"/><circle id="Ellipse_37" data-name="Ellipse 37" class="cls-2" cx="54" cy="54" r="4"/><circle id="Ellipse_38" data-name="Ellipse 38" class="cls-2" cx="79" cy="54" r="4"/><ellipse id="Ellipse_39" data-name="Ellipse 39" class="cls-2" cx="104.5" cy="54" rx="3.5" ry="4"/><ellipse id="Ellipse_40" data-name="Ellipse 40" class="cls-2" cx="129.5" cy="54" rx="3.5" ry="4"/><ellipse id="Ellipse_41" data-name="Ellipse 41" class="cls-2" cx="154.5" cy="54" rx="3.5" ry="4"/><circle id="Ellipse_42" data-name="Ellipse 42" class="cls-2" cx="180" cy="54" r="4"/><circle id="Ellipse_43" data-name="Ellipse 43" class="cls-2" cx="205" cy="54" r="4"/><circle id="Ellipse_44" data-name="Ellipse 44" class="cls-2" cx="230" cy="54" r="4"/><ellipse id="Ellipse_45" data-name="Ellipse 45" class="cls-2" cx="255.5" cy="54" rx="3.5" ry="4"/><ellipse id="Ellipse_46" data-name="Ellipse 46" class="cls-2" cx="280.5" cy="54" rx="3.5" ry="4"/><ellipse id="Ellipse_47" data-name="Ellipse 47" class="cls-2" cx="3.5" cy="79" rx="3.5" ry="4"/><circle id="Ellipse_48" data-name="Ellipse 48" class="cls-2" cx="29" cy="79" r="4"/><circle id="Ellipse_49" data-name="Ellipse 49" class="cls-2" cx="54" cy="79" r="4"/><circle id="Ellipse_50" data-name="Ellipse 50" class="cls-2" cx="79" cy="79" r="4"/><ellipse id="Ellipse_51" data-name="Ellipse 51" class="cls-2" cx="104.5" cy="79" rx="3.5" ry="4"/><ellipse id="Ellipse_52" data-name="Ellipse 52" class="cls-2" cx="129.5" cy="79" rx="3.5" ry="4"/><ellipse id="Ellipse_53" data-name="Ellipse 53" class="cls-2" cx="154.5" cy="79" rx="3.5" ry="4"/><circle id="Ellipse_54" data-name="Ellipse 54" class="cls-2" cx="180" cy="79" r="4"/><circle id="Ellipse_55" data-name="Ellipse 55" class="cls-2" cx="205" cy="79" r="4"/><circle id="Ellipse_56" data-name="Ellipse 56" class="cls-2" cx="230" cy="79" r="4"/><ellipse id="Ellipse_57" data-name="Ellipse 57" class="cls-2" cx="255.5" cy="79" rx="3.5" ry="4"/><ellipse id="Ellipse_58" data-name="Ellipse 58" class="cls-2" cx="280.5" cy="79" rx="3.5" ry="4"/><ellipse id="Ellipse_59" data-name="Ellipse 59" class="cls-2" cx="3.5" cy="104" rx="3.5" ry="4"/><circle id="Ellipse_60" data-name="Ellipse 60" class="cls-2" cx="29" cy="104" r="4"/><circle id="Ellipse_61" data-name="Ellipse 61" class="cls-2" cx="54" cy="104" r="4"/><circle id="Ellipse_62" data-name="Ellipse 62" class="cls-2" cx="79" cy="104" r="4"/><ellipse id="Ellipse_63" data-name="Ellipse 63" class="cls-2" cx="104.5" cy="104" rx="3.5" ry="4"/><ellipse id="Ellipse_64" data-name="Ellipse 64" class="cls-2" cx="129.5" cy="104" rx="3.5" ry="4"/><ellipse id="Ellipse_65" data-name="Ellipse 65" class="cls-2" cx="154.5" cy="104" rx="3.5" ry="4"/><circle id="Ellipse_66" data-name="Ellipse 66" class="cls-2" cx="180" cy="104" r="4"/><circle id="Ellipse_67" data-name="Ellipse 67" class="cls-2" cx="205" cy="104" r="4"/><circle id="Ellipse_68" data-name="Ellipse 68" class="cls-2" cx="230" cy="104" r="4"/><ellipse id="Ellipse_69" data-name="Ellipse 69" class="cls-2" cx="255.5" cy="104" rx="3.5" ry="4"/><ellipse id="Ellipse_70" data-name="Ellipse 70" class="cls-2" cx="280.5" cy="104" rx="3.5" ry="4"/><circle id="Ellipse_71" data-name="Ellipse 71" class="cls-2" cx="3.5" cy="129.5" r="3.5"/><ellipse id="Ellipse_72" data-name="Ellipse 72" class="cls-2" cx="29" cy="129.5" rx="4" ry="3.5"/><ellipse id="Ellipse_73" data-name="Ellipse 73" class="cls-2" cx="54" cy="129.5" rx="4" ry="3.5"/><ellipse id="Ellipse_74" data-name="Ellipse 74" class="cls-2" cx="79" cy="129.5" rx="4" ry="3.5"/><circle id="Ellipse_75" data-name="Ellipse 75" class="cls-2" cx="104.5" cy="129.5" r="3.5"/><circle id="Ellipse_76" data-name="Ellipse 76" class="cls-2" cx="129.5" cy="129.5" r="3.5"/><circle id="Ellipse_77" data-name="Ellipse 77" class="cls-2" cx="154.5" cy="129.5" r="3.5"/><ellipse id="Ellipse_78" data-name="Ellipse 78" class="cls-2" cx="180" cy="129.5" rx="4" ry="3.5"/><ellipse id="Ellipse_79" data-name="Ellipse 79" class="cls-2" cx="205" cy="129.5" rx="4" ry="3.5"/><ellipse id="Ellipse_80" data-name="Ellipse 80" class="cls-2" cx="230" cy="129.5" rx="4" ry="3.5"/><circle id="Ellipse_81" data-name="Ellipse 81" class="cls-2" cx="255.5" cy="129.5" r="3.5"/><circle id="Ellipse_82" data-name="Ellipse 82" class="cls-2" cx="280.5" cy="129.5" r="3.5"/><circle id="Ellipse_83" data-name="Ellipse 83" class="cls-2" cx="3.5" cy="154.5" r="3.5"/><ellipse id="Ellipse_84" data-name="Ellipse 84" class="cls-2" cx="29" cy="154.5" rx="4" ry="3.5"/><ellipse id="Ellipse_85" data-name="Ellipse 85" class="cls-2" cx="54" cy="154.5" rx="4" ry="3.5"/><ellipse id="Ellipse_86" data-name="Ellipse 86" class="cls-2" cx="79" cy="154.5" rx="4" ry="3.5"/><circle id="Ellipse_87" data-name="Ellipse 87" class="cls-2" cx="104.5" cy="154.5" r="3.5"/><circle id="Ellipse_88" data-name="Ellipse 88" class="cls-2" cx="129.5" cy="154.5" r="3.5"/><circle id="Ellipse_89" data-name="Ellipse 89" class="cls-2" cx="154.5" cy="154.5" r="3.5"/><ellipse id="Ellipse_90" data-name="Ellipse 90" class="cls-2" cx="180" cy="154.5" rx="4" ry="3.5"/><ellipse id="Ellipse_91" data-name="Ellipse 91" class="cls-2" cx="205" cy="154.5" rx="4" ry="3.5"/><ellipse id="Ellipse_92" data-name="Ellipse 92" class="cls-2" cx="230" cy="154.5" rx="4" ry="3.5"/><circle id="Ellipse_93" data-name="Ellipse 93" class="cls-2" cx="255.5" cy="154.5" r="3.5"/><circle id="Ellipse_94" data-name="Ellipse 94" class="cls-2" cx="280.5" cy="154.5" r="3.5"/><circle id="Ellipse_95" data-name="Ellipse 95" class="cls-2" cx="3.5" cy="179.5" r="3.5"/><ellipse id="Ellipse_96" data-name="Ellipse 96" class="cls-2" cx="29" cy="179.5" rx="4" ry="3.5"/><ellipse id="Ellipse_97" data-name="Ellipse 97" class="cls-2" cx="54" cy="179.5" rx="4" ry="3.5"/><ellipse id="Ellipse_98" data-name="Ellipse 98" class="cls-2" cx="79" cy="179.5" rx="4" ry="3.5"/><circle id="Ellipse_99" data-name="Ellipse 99" class="cls-2" cx="104.5" cy="179.5" r="3.5"/><circle id="Ellipse_100" data-name="Ellipse 100" class="cls-2" cx="129.5" cy="179.5" r="3.5"/><circle id="Ellipse_101" data-name="Ellipse 101" class="cls-2" cx="154.5" cy="179.5" r="3.5"/><ellipse id="Ellipse_102" data-name="Ellipse 102" class="cls-2" cx="180" cy="179.5" rx="4" ry="3.5"/><ellipse id="Ellipse_103" data-name="Ellipse 103" class="cls-2" cx="205" cy="179.5" rx="4" ry="3.5"/><ellipse id="Ellipse_104" data-name="Ellipse 104" class="cls-2" cx="230" cy="179.5" rx="4" ry="3.5"/><circle id="Ellipse_105" data-name="Ellipse 105" class="cls-2" cx="255.5" cy="179.5" r="3.5"/><circle id="Ellipse_106" data-name="Ellipse 106" class="cls-2" cx="280.5" cy="179.5" r="3.5"/><ellipse id="Ellipse_107" data-name="Ellipse 107" class="cls-2" cx="3.5" cy="205" rx="3.5" ry="4"/><circle id="Ellipse_108" data-name="Ellipse 108" class="cls-2" cx="29" cy="205" r="4"/><circle id="Ellipse_109" data-name="Ellipse 109" class="cls-2" cx="54" cy="205" r="4"/><circle id="Ellipse_110" data-name="Ellipse 110" class="cls-2" cx="79" cy="205" r="4"/><ellipse id="Ellipse_111" data-name="Ellipse 111" class="cls-2" cx="104.5" cy="205" rx="3.5" ry="4"/><ellipse id="Ellipse_112" data-name="Ellipse 112" class="cls-2" cx="129.5" cy="205" rx="3.5" ry="4"/><ellipse id="Ellipse_113" data-name="Ellipse 113" class="cls-2" cx="154.5" cy="205" rx="3.5" ry="4"/><circle id="Ellipse_114" data-name="Ellipse 114" class="cls-2" cx="180" cy="205" r="4"/><circle id="Ellipse_115" data-name="Ellipse 115" class="cls-2" cx="205" cy="205" r="4"/><circle id="Ellipse_116" data-name="Ellipse 116" class="cls-2" cx="230" cy="205" r="4"/><ellipse id="Ellipse_117" data-name="Ellipse 117" class="cls-2" cx="255.5" cy="205" rx="3.5" ry="4"/><ellipse id="Ellipse_118" data-name="Ellipse 118" class="cls-2" cx="280.5" cy="205" rx="3.5" ry="4"/><ellipse id="Ellipse_119" data-name="Ellipse 119" class="cls-2" cx="3.5" cy="230" rx="3.5" ry="4"/><circle id="Ellipse_120" data-name="Ellipse 120" class="cls-2" cx="29" cy="230" r="4"/><circle id="Ellipse_121" data-name="Ellipse 121" class="cls-2" cx="54" cy="230" r="4"/><circle id="Ellipse_122" data-name="Ellipse 122" class="cls-2" cx="79" cy="230" r="4"/><ellipse id="Ellipse_123" data-name="Ellipse 123" class="cls-2" cx="104.5" cy="230" rx="3.5" ry="4"/><ellipse id="Ellipse_124" data-name="Ellipse 124" class="cls-2" cx="129.5" cy="230" rx="3.5" ry="4"/><ellipse id="Ellipse_125" data-name="Ellipse 125" class="cls-2" cx="154.5" cy="230" rx="3.5" ry="4"/><circle id="Ellipse_126" data-name="Ellipse 126" class="cls-2" cx="180" cy="230" r="4"/><circle id="Ellipse_127" data-name="Ellipse 127" class="cls-2" cx="205" cy="230" r="4"/><circle id="Ellipse_128" data-name="Ellipse 128" class="cls-2" cx="230" cy="230" r="4"/><ellipse id="Ellipse_129" data-name="Ellipse 129" class="cls-2" cx="255.5" cy="230" rx="3.5" ry="4"/><ellipse id="Ellipse_130" data-name="Ellipse 130" class="cls-2" cx="280.5" cy="230" rx="3.5" ry="4"/><ellipse id="Ellipse_131" data-name="Ellipse 131" class="cls-2" cx="3.5" cy="255" rx="3.5" ry="4"/><circle id="Ellipse_132" data-name="Ellipse 132" class="cls-2" cx="29" cy="255" r="4"/><circle id="Ellipse_133" data-name="Ellipse 133" class="cls-2" cx="54" cy="255" r="4"/><circle id="Ellipse_134" data-name="Ellipse 134" class="cls-2" cx="79" cy="255" r="4"/><ellipse id="Ellipse_135" data-name="Ellipse 135" class="cls-2" cx="104.5" cy="255" rx="3.5" ry="4"/><ellipse id="Ellipse_136" data-name="Ellipse 136" class="cls-2" cx="129.5" cy="255" rx="3.5" ry="4"/><ellipse id="Ellipse_137" data-name="Ellipse 137" class="cls-2" cx="154.5" cy="255" rx="3.5" ry="4"/><circle id="Ellipse_138" data-name="Ellipse 138" class="cls-2" cx="180" cy="255" r="4"/><circle id="Ellipse_139" data-name="Ellipse 139" class="cls-2" cx="205" cy="255" r="4"/><circle id="Ellipse_140" data-name="Ellipse 140" class="cls-2" cx="230" cy="255" r="4"/><ellipse id="Ellipse_141" data-name="Ellipse 141" class="cls-2" cx="255.5" cy="255" rx="3.5" ry="4"/><ellipse id="Ellipse_142" data-name="Ellipse 142" class="cls-2" cx="280.5" cy="255" rx="3.5" ry="4"/><circle id="Ellipse_143" data-name="Ellipse 143" class="cls-2" cx="3.5" cy="280.5" r="3.5"/><ellipse id="Ellipse_144" data-name="Ellipse 144" class="cls-2" cx="29" cy="280.5" rx="4" ry="3.5"/><ellipse id="Ellipse_145" data-name="Ellipse 145" class="cls-2" cx="54" cy="280.5" rx="4" ry="3.5"/><ellipse id="Ellipse_146" data-name="Ellipse 146" class="cls-2" cx="79" cy="280.5" rx="4" ry="3.5"/><circle id="Ellipse_147" data-name="Ellipse 147" class="cls-2" cx="104.5" cy="280.5" r="3.5"/><circle id="Ellipse_148" data-name="Ellipse 148" class="cls-2" cx="129.5" cy="280.5" r="3.5"/><circle id="Ellipse_149" data-name="Ellipse 149" class="cls-2" cx="154.5" cy="280.5" r="3.5"/><ellipse id="Ellipse_150" data-name="Ellipse 150" class="cls-2" cx="180" cy="280.5" rx="4" ry="3.5"/><ellipse id="Ellipse_151" data-name="Ellipse 151" class="cls-2" cx="205" cy="280.5" rx="4" ry="3.5"/><ellipse id="Ellipse_152" data-name="Ellipse 152" class="cls-2" cx="230" cy="280.5" rx="4" ry="3.5"/><circle id="Ellipse_153" data-name="Ellipse 153" class="cls-2" cx="255.5" cy="280.5" r="3.5"/><circle id="Ellipse_154" data-name="Ellipse 154" class="cls-2" cx="280.5" cy="280.5" r="3.5"/></g></svg>