<svg id="Слой_1" data-name="Слой 1" xmlns="http://www.w3.org/2000/svg" viewBox="0 0 24 24"><defs><style>.cls-1{fill:none;}.cls-2{fill:#ed5a5a;}</style></defs><title>VK</title><path id="Path_63" data-name="Path 63" class="cls-1" d="M0,0H24V24H0Z"/><path id="Path_67" data-name="Path 67" class="cls-1" d="M0,0H24V24H0Z"/><path id="Path_65" data-name="Path 65" class="cls-1" d="M0,0H24V24H0Z"/><g id="vkontakte-logo"><path id="Path_2" data-name="Path 2" class="cls-2" d="M13.11,13.06a2.42,2.42,0,0,0-1.16-.2H10.72v2.53h1.13a2.29,2.29,0,0,0,1.31-.22,1.3,1.3,0,0,0,.51-1.07A1.27,1.27,0,0,0,13.11,13.06Zm-.46-2.17a1.18,1.18,0,0,0,.42-.92,1.07,1.07,0,0,0-.49-.92,3.13,3.13,0,0,0-1.32-.14h-.54v2.22h.71A1.87,1.87,0,0,0,12.65,10.89Zm6-9.22H5.3A3.64,3.64,0,0,0,1.67,5.3V18.7A3.64,3.64,0,0,0,5.3,22.33H18.7a3.64,3.64,0,0,0,3.63-3.63h0V5.3A3.64,3.64,0,0,0,18.7,1.67ZM12.56,17.28H8.34V7.09H13a2.39,2.39,0,0,1,2.56,2.2.76.76,0,0,1,0,.15,2.16,2.16,0,0,1-1.47,2.2v0a2.33,2.33,0,0,1,2.1,2.52h0C16.14,15.67,15.13,17.28,12.56,17.28Z"/></g></svg>