<svg xmlns="http://www.w3.org/2000/svg" width="246" height="31.184" viewBox="0 0 246 31.184">
  <g id="Group_469" data-name="Group 469" transform="translate(-459 -192.4)">
    <text id="Create_with_love_in_" data-name="Create with love in " transform="translate(459 213.324)" fill="#b5b5b5" font-size="15" font-family="Lato-Regular, Lato" letter-spacing="0.02em"><tspan x="0" y="0">Create with love in </tspan></text>
    <g id="WR_Logo_White" data-name="WR Logo White" transform="translate(615.984 192.4)">
      <g id="Group_10" data-name="Group 10" transform="translate(32.494)">
        <path id="Path_20" data-name="Path 20" d="M71.38,6.29,68.716,17.064H64.033L62.267,9.071h-.338l-1.754,7.993H55.493L52.81,6.29h2.855L57.6,14.283h.338L59.732,6.29h4.726l1.791,7.993h.338L68.525,6.29H71.38Z" transform="translate(-52.81 -2.42)" fill="#b5b5b5"/>
        <path id="Path_21" data-name="Path 21" d="M96.126,14.644h-2.72V6.381H89.013v8.264H86.3V0h2.72V3.87h7.113V14.644Z" transform="translate(-65.693)" fill="#b5b5b5"/>
        <path id="Path_22" data-name="Path 22" d="M108.7,0V2.092h-2.72V0Zm0,3.87V14.644h-2.72V3.87Z" transform="translate(-73.264)" fill="#b5b5b5"/>
        <path id="Path_23" data-name="Path 23" d="M118.433,6.381v5.753H121.3v2.51h-5.587V6.381H114.04V3.87h1.674V0h2.72V3.87H121.3v2.51Z" transform="translate(-76.365)" fill="#b5b5b5"/>
        <path id="Path_24" data-name="Path 24" d="M138.757,12.54h-6.651c.191,1.317.837,2.092,2.929,2.092a12.232,12.232,0,0,0,3.015-.332v2.467a12.235,12.235,0,0,1-3.224.375c-4.83,0-5.525-3.409-5.525-5.587,0-3.2,1.3-5.605,4.769-5.605,3.39,0,4.689,2.24,4.689,5.378V12.54Zm-6.713-1.987h3.993c-.086-1.464-.671-2.092-2.006-2.092C132.733,8.46,132.13,9.15,132.044,10.552Z" transform="translate(-82.235 -2.289)" fill="#b5b5b5"/>
        <g id="Group_9" data-name="Group 9" transform="translate(0.904 16.33)">
          <g id="Group_8" data-name="Group 8">
            <path id="Path_25" data-name="Path 25" d="M61.018,35.34H57V43.6H54.28V32.83h6.738v2.51Z" transform="translate(-54.28 -28.96)" fill="#b5b5b5"/>
            <path id="Path_26" data-name="Path 26" d="M77.051,40.989V43.6H72.971V42.558a3.176,3.176,0,0,1-2.91,1.255,3.551,3.551,0,0,1-3.741-3.766,3.554,3.554,0,0,1,3.741-3.766,3.123,3.123,0,0,1,2.91,1.255v-2.3H67.532V32.83h8.159v8.159Zm-4.079-.941c0-.837-.541-1.507-1.969-1.507s-1.969.671-1.969,1.507.541,1.507,1.969,1.507S72.971,40.884,72.971,40.048Z" transform="translate(-58.912 -28.96)" fill="#b5b5b5"/>
            <path id="Path_27" data-name="Path 27" d="M96.727,35.788c0,3.077-1.4,5.605-4.646,5.605a3.419,3.419,0,0,1-3.052-1.526v1.317H86.31V26.54h2.72v5.169A3.458,3.458,0,0,1,92.082,30.2C95.324,30.2,96.727,32.711,96.727,35.788Zm-2.72,0c0-2.135-.751-3.077-2.492-3.077s-2.486.941-2.486,3.077c0,2.154.751,3.095,2.486,3.095S94.007,37.942,94.007,35.788Z" transform="translate(-66.602 -26.54)" fill="#b5b5b5"/>
            <path id="Path_28" data-name="Path 28" d="M116.417,35.788c0,3.077-1.4,5.605-4.646,5.605a3.419,3.419,0,0,1-3.052-1.526v1.317H106V26.54h2.72v5.169a3.458,3.458,0,0,1,3.052-1.507C115.014,30.2,116.417,32.711,116.417,35.788Zm-2.72,0c0-2.135-.751-3.077-2.492-3.077s-2.492.941-2.492,3.077c0,2.154.751,3.095,2.492,3.095S113.7,37.942,113.7,35.788Z" transform="translate(-74.176 -26.54)" fill="#b5b5b5"/>
            <path id="Path_29" data-name="Path 29" d="M128.57,26.54v2.092h-2.72V26.54Zm0,3.87V41.184h-2.72V30.41Z" transform="translate(-81.813 -26.54)" fill="#b5b5b5"/>
            <path id="Path_30" data-name="Path 30" d="M137.083,32.921v5.753h2.867v2.51h-5.587V32.921H132.69V30.41h1.674V26.54h2.72v3.87h2.867v2.51h-2.867Z" transform="translate(-84.444 -26.54)" fill="#b5b5b5"/>
          </g>
        </g>
      </g>
      <g id="Group_12" data-name="Group 12" transform="translate(0 3.667)">
        <path id="Path_31" data-name="Path 31" d="M39.147,11.338A5.375,5.375,0,0,0,33.769,5.96H25.85V21.872H39.141l-4.387-5.249A5.393,5.393,0,0,0,39.147,11.338Z" transform="translate(-9.944 -5.96)" fill="#b5b5b5"/>
        <g id="Group_11" data-name="Group 11" transform="translate(0 8.073)">
          <path id="Path_32" data-name="Path 32" d="M15.906,27.817h-.991V19.08H0L8.737,36.561l2.849-5.692,3.5,7.008,5.027-10.06Z" transform="translate(0 -19.08)" fill="#b5b5b5"/>
        </g>
      </g>
    </g>
  </g>
</svg>
