<svg id="WR_Logo_White" data-name="WR Logo White" xmlns="http://www.w3.org/2000/svg" width="90.159" height="31.584" viewBox="0 0 90.159 31.584">
  <g id="Group_10" data-name="Group 10" transform="translate(32.911 0)">
    <path id="Path_20" data-name="Path 20" d="M71.618,6.29,68.92,17.2H64.177l-1.789-8.1h-.343L60.27,17.2H55.527L52.81,6.29H55.7l1.963,8.1h.343l1.814-8.1h4.786l1.814,8.1h.343l1.963-8.1h2.892Z" transform="translate(-52.81 -2.37)" fill="#b5b5b5"/>
    <path id="Path_21" data-name="Path 21" d="M96.253,14.832H93.5V6.463h-4.45v8.37H86.3V0h2.755V3.92h7.2V14.832Z" transform="translate(-65.429)" fill="#b5b5b5"/>
    <path id="Path_22" data-name="Path 22" d="M108.735,0V2.119H105.98V0Zm0,3.92V14.832H105.98V3.92Z" transform="translate(-72.844)" fill="#b5b5b5"/>
    <path id="Path_23" data-name="Path 23" d="M118.49,6.463V12.29h2.9v2.543h-5.659V6.463h-1.7V3.92h1.7V0h2.755V3.92h2.9V6.463Z" transform="translate(-75.881)" fill="#b5b5b5"/>
    <path id="Path_24" data-name="Path 24" d="M138.879,12.625h-6.737c.193,1.334.848,2.119,2.966,2.119a12.389,12.389,0,0,0,3.054-.337v2.5a12.392,12.392,0,0,1-3.266.38c-4.892,0-5.6-3.453-5.6-5.659,0-3.241,1.315-5.677,4.83-5.677,3.434,0,4.749,2.268,4.749,5.447v1.228Zm-6.8-2.013h4.045c-.087-1.483-.679-2.119-2.032-2.119C132.777,8.493,132.167,9.191,132.079,10.612Z" transform="translate(-81.631 -2.242)" fill="#b5b5b5"/>
    <g id="Group_9" data-name="Group 9" transform="translate(0.916 16.54)">
      <g id="Group_8" data-name="Group 8">
        <path id="Path_25" data-name="Path 25" d="M61.1,35.373h-4.07v8.37H54.28V32.83H61.1v2.543Z" transform="translate(-54.28 -28.91)" fill="#b5b5b5"/>
        <path id="Path_26" data-name="Path 26" d="M77.189,41.094v2.649H73.057V42.683a3.217,3.217,0,0,1-2.948,1.271A3.6,3.6,0,0,1,66.32,40.14a3.6,3.6,0,0,1,3.789-3.814A3.163,3.163,0,0,1,73.057,37.6V35.267H67.548V32.83h8.264v8.264h1.377Zm-4.132-.954c0-.848-.548-1.527-1.994-1.527s-1.994.679-1.994,1.527.548,1.527,1.994,1.527S73.057,40.988,73.057,40.14Z" transform="translate(-58.817 -28.91)" fill="#b5b5b5"/>
        <path id="Path_27" data-name="Path 27" d="M96.861,35.907c0,3.116-1.421,5.677-4.705,5.677a3.462,3.462,0,0,1-3.091-1.546v1.334H86.31V26.54h2.755v5.235a3.5,3.5,0,0,1,3.091-1.527C95.44,30.248,96.861,32.791,96.861,35.907Zm-2.755,0c0-2.163-.76-3.116-2.524-3.116s-2.518.954-2.518,3.116c0,2.181.76,3.135,2.518,3.135S94.106,38.088,94.106,35.907Z" transform="translate(-66.349 -26.54)" fill="#b5b5b5"/>
        <path id="Path_28" data-name="Path 28" d="M116.551,35.907c0,3.116-1.421,5.677-4.705,5.677a3.462,3.462,0,0,1-3.091-1.546v1.334H106V26.54h2.755v5.235a3.5,3.5,0,0,1,3.091-1.527C115.13,30.248,116.551,32.791,116.551,35.907Zm-2.755,0c0-2.163-.76-3.116-2.524-3.116s-2.524.954-2.524,3.116c0,2.181.76,3.135,2.524,3.135S113.8,38.088,113.8,35.907Z" transform="translate(-73.768 -26.54)" fill="#b5b5b5"/>
        <path id="Path_29" data-name="Path 29" d="M128.6,26.54v2.119H125.85V26.54Zm0,3.92V41.372H125.85V30.46Z" transform="translate(-81.247 -26.54)" fill="#b5b5b5"/>
        <path id="Path_30" data-name="Path 30" d="M137.14,33V38.83h2.9v2.543h-5.659V33h-1.7V30.46h1.7V26.54h2.755v3.92h2.9V33h-2.9Z" transform="translate(-83.824 -26.54)" fill="#b5b5b5"/>
      </g>
    </g>
  </g>
  <g id="Group_12" data-name="Group 12" transform="translate(0 3.714)">
    <path id="Path_31" data-name="Path 31" d="M39.317,11.407A5.444,5.444,0,0,0,33.871,5.96H25.85V22.076H39.311L34.868,16.76A5.462,5.462,0,0,0,39.317,11.407Z" transform="translate(-9.74 -5.96)" fill="#b5b5b5"/>
    <g id="Group_11" data-name="Group 11" transform="translate(0 8.176)">
      <path id="Path_32" data-name="Path 32" d="M16.11,27.93h-1V19.08H0L8.85,36.785l2.885-5.765,3.546,7.1L20.373,27.93Z" transform="translate(0 -19.08)" fill="#b5b5b5"/>
    </g>
  </g>
</svg>
